<svg xmlns="http://www.w3.org/2000/svg" xml:space="preserve" fill-rule="evenodd" stroke-linejoin="round" stroke-miterlimit="2" clip-rule="evenodd" viewBox="0 0 458 79" preserveAspectRatio="xMidYMid meet" width="100%">
  <path fill="#fff" d="M106.422 29.713V6.824c0-2.451-1.435-4.775-4.373-6.815-.001-.001 17.317-.001 17.317-.001-2.939 2.041-4.374 4.365-4.374 6.816v22.619c-.866.222-1.752.299-2.669.372-1.216.097-2.422.112-3.641.043-.429-.025-.857-.09-1.287-.099-.313-.006-.661.033-.973-.046Zm-94.478 7.878V6.824c0-2.451-1.435-4.775-4.373-6.815C7.57.008 24.888.008 24.888.008c-2.939 2.041-4.375 4.365-4.375 6.816v22.419c-.152.348-.323.689-.471 1.038-.305.724-.552 1.48-.814 2.221-.216.613-.489 1.185-.732 1.785-.163.406-.299.882-.588 1.221-.141.165-.354.243-.549.323-.333.137-.676.251-1.012.382-1.17.458-2.407.905-3.639 1.164-.236.05-.506.156-.764.214Zm103.048 2.275v31.582c0 2.451 1.436 4.775 4.373 6.815l-17.317.001c2.939-2.041 4.374-4.365 4.374-6.816V45.069c.085-.032.168-.065.245-.094.526-.198 1.047-.414 1.57-.621.691-.274 1.346-.607 2.022-.913.708-.321 1.41-.632 2.055-1.073.422-.29.768-.677 1.138-1.027.516-.488 1.023-.987 1.54-1.475Zm-94.457 1.589c-.014.068-.022.138-.022.209v29.784c0 2.451 1.436 4.775 4.374 6.815.001.001-17.317.001-17.317.001 2.938-2.041 4.374-4.365 4.374-6.816V44.326c1.434-.48 2.883-.982 4.3-1.504.401-.148.78-.346 1.18-.495 1.006-.375 2.057-.657 3.111-.872ZM135.696 11.81 127.087 0h104.877l-8.607 11.808c-2.371-4.017-5.117-5.9-8.278-5.9h-11.906c-.321 0-.622.154-.81.414a.9987.9987 0 0 0-.14.898l20.504 62.418c1.378 4.289 3.004 6.703 6.191 8.617.001.001-18.569.001-18.569.001 2.738-1.945 4.076-4.179 4.076-6.605 0-.603-.12-1.448-.372-2.292l-.002-.005-5.291-17.427a1.0006 1.0006 0 0 0-.957-.709h-56.555c-.44 0-.829.288-.957.71l-5.156 17.027c-.366.743-.509 1.606-.509 2.59 0 2.51 1.337 4.763 4.119 6.71.001.001-18.583.001-18.583.001 3.259-1.962 4.916-4.496 6.382-9.04l20.395-61.995a1.0006 1.0006 0 0 0-.95-1.313h-11.907c-3.159 0-5.997 1.886-8.386 5.902Zm29.333-5.902c-.441 0-.83.289-.958.711l-11.244 37.19a.9965.9965 0 0 0 .154.885.996.996 0 0 0 .803.404h51.594c.316 0 .615-.15.803-.405.189-.254.245-.584.153-.887l-11.355-37.19a1.0006 1.0006 0 0 0-.957-.708h-28.993Zm178.709 72.347-22.546.001c2.115-1.655 3.11-3.582 3.11-5.759 0-1.558-.49-3.238-1.613-4.797.006.009-30.739-47.28-30.739-47.28-.286-.44-.863-.584-1.322-.331l-37.483 20.698c-.318.176-.516.511-.516.875v29.779c0 2.45 1.435 4.774 4.372 6.814.001.001-17.315.001-17.315.001 2.938-2.041 4.373-4.365 4.373-6.815V6.815c0-2.45-1.435-4.774-4.372-6.814C239.686 0 257.003 0 257.003 0c-2.939 2.041-4.374 4.364-4.374 6.815v25.871c0 .355.188.683.493.863.306.179.684.183.994.011l46.412-25.872.012-.006c1.807-1.039 3.037-2.055 3.743-3.011.578-.783.837-1.553.837-2.292 0-.666-.231-1.34-.737-1.997a4.8342 4.8342 0 0 0-.328-.381C304.054 0 328.31 0 328.31 0c-3.017 1.139-6.329 2.701-9.9 4.672l-.004.002-18.962 10.56a.9996.9996 0 0 0-.484.635.9985.9985 0 0 0 .135.787l33.731 51.421c2.734 4.306 6.353 7.7 10.912 10.178Zm17.294-66.445L352.423 0H457.3l-8.607 11.808c-2.371-4.017-5.117-5.9-8.278-5.9h-11.906c-.321 0-.622.154-.81.414a.9957.9957 0 0 0-.14.898l20.504 62.418c1.378 4.289 3.004 6.703 6.191 8.617.001.001-18.569.001-18.569.001 2.738-1.945 4.076-4.179 4.076-6.605 0-.603-.12-1.448-.372-2.292l-.002-.005-5.291-17.427a1.0006 1.0006 0 0 0-.957-.709h-56.555c-.441 0-.829.288-.957.71l-5.156 17.027c-.366.743-.509 1.606-.509 2.59 0 2.51 1.337 4.763 4.119 6.71.001.001-18.583.001-18.583.001 3.259-1.962 4.916-4.496 6.382-9.04l20.395-61.995a1.0006 1.0006 0 0 0-.95-1.313h-11.907c-3.159 0-5.997 1.886-8.386 5.902Zm29.333-5.902c-.441 0-.83.289-.958.711l-11.244 37.19a.9965.9965 0 0 0 .154.885.996.996 0 0 0 .803.404h51.593c.317 0 .616-.15.804-.405.189-.254.245-.584.153-.887l-11.355-37.19a1.0006 1.0006 0 0 0-.957-.708h-28.993Z"/>
  <path id="Leaf" fill="url(#_Linear1)" d="M139.343 55.212c-1.728.359-3.945-1.105-5.549-.279a.4278.4278 0 0 0-.041.687c.922.601 2.374.372 3.653 1.049.103.061.162.175.151.294-.01.12-.089.222-.201.264-2.016.454-4.692-1.551-6.698-1.046a.4461.4461 0 0 0-.263.369c-.014.162.061.318.195.409.982.597 2.41 1.339 3.494 2.144.096.075.138.2.108.318a.307.307 0 0 1-.245.228c-2.123-.192-5.06-3.421-6.943-2.694a.4487.4487 0 0 0-.204.317c-.018.13.023.261.111.359 1.179 1.259 2.827 2.393 4.24 3.596a.3089.3089 0 0 1-.162.54c-2.76-.073-5.397-4.58-7.831-3.835a.4371.4371 0 0 0-.269.454c.387 1.988 3.721 2.956 4.722 5.037.038.097.025.207-.034.293a.3144.3144 0 0 1-.262.134c-3.761-.32-5.328-7.102-8.647-5.258a.4463.4463 0 0 0-.21.328c-.016.136.031.272.128.369 1.761 1.779 2.892 3.728 4.311 5.603.074.096.085.226.029.334a.3105.3105 0 0 1-.292.164c-4.112-.589-4.725-7.899-8.436-6.13a.4434.4434 0 0 0-.236.322.447.447 0 0 0 .115.382c1.982 2.111 3.56 4.331 4.758 6.654.052.102.044.223-.021.318a.3098.3098 0 0 1-.289.133c-4.45-.698-4.511-8.169-8.657-7.594a.447.447 0 0 0-.328.269.4443.4443 0 0 0 .044.422c1.722 2.531 3.165 5.136 4.512 7.769a.3123.3123 0 0 1-.363.443c-5.217-1.693-4.664-9.298-9.322-8.89a.4411.4411 0 0 0-.36.283.442.442 0 0 0 .082.451c2.535 2.871 3.258 5.685 4.473 8.672.046.111.024.239-.056.328a.3125.3125 0 0 1-.32.091c-5.348-1.777-4.032-9.659-9.107-10.252a.6253.6253 0 0 0-.571.29.6253.6253 0 0 0-.015.64c1.776 3.171 3.238 6.425 4.501 9.734.046.119.015.254-.078.341a.3154.3154 0 0 1-.345.058c-4.31-2.063-5.401-7.504-7.409-11.101a.6174.6174 0 0 0-.223-.228c-.615-.381-1.125-.371-1.646-.432a.6257.6257 0 0 0-.578.258.6252.6252 0 0 0-.056.631c1.652 3.442 3.194 6.913 3.532 10.706.01.134-.063.259-.184.315a.319.319 0 0 1-.36-.062c-1.486-1.448-2.774-2.673-3.794-4.609-1.683-3.198-.717-7.611-4.505-8.476a.6234.6234 0 0 0-.632.203.624.624 0 0 0-.091.658c1.677 3.78 3.143 8.214 3.496 11.843a.3168.3168 0 0 1-.168.307.3164.3164 0 0 1-.348-.036c-4.527-3.701-4.589-8.599-6.036-13.126a.626.626 0 0 0-.496-.424c-.843-.14-1.695-.312-2.502-.319a.6211.6211 0 0 0-.527.356.6207.6207 0 0 0 .064.632c2.94 4.066 3.467 8.779 5.509 13.088a.314.314 0 0 1-.06.359.3142.3142 0 0 1-.359.063c-5.617-2.804-6.712-9.307-8.14-14.224a.6224.6224 0 0 0-.53-.443c-.891-.131-1.84-.479-2.677-.401a.6012.6012 0 0 0-.393.257.6002.6002 0 0 0-.087.461c.326 1.319 1.591 1.952 2.223 3.086.647 1.157.687 2.559 1.159 3.624 1.233 2.785 2.575 5.394 3.75 8.652.045.124.008.263-.092.349a.3212.3212 0 0 1-.36.036c-6.799-3.755-8.177-10.262-10.314-15.788a.6248.6248 0 0 0-.486-.39c-1.146-.171-2.23-.108-3.292.04a.6226.6226 0 0 0-.501.404.623.623 0 0 0 .127.632c4.568 5.038 6.276 10.842 8.605 16.48.049.118.023.254-.067.345a.3182.3182 0 0 1-.345.071c-5.766-2.407-7.908-8.071-10.003-12.413-1.308-2.71-2.386-6.765-6.472-5.048a.6177.6177 0 0 0-.388.484c-.033.219.054.439.228.576 6.532 5.167 6.895 11.986 10.916 17.827.078.112.076.262-.007.372a.3152.3152 0 0 1-.356.109c-8.782-3.127-11.78-11.677-14.173-18.437a.6227.6227 0 0 0-.586-.414c-1.448.014-2.791.423-4.134.833a.776.776 0 0 0-.551.589c-.06.284.043.578.267.762 6.391 5.355 9.45 12.683 12.804 19.067a.317.317 0 0 1-.039.355c-.085.1-.222.137-.345.094-9.737-3.409-13.78-12.277-17.371-19.004a.7824.7824 0 0 0-.888-.386c-6.836 1.841-15.489 5.636-18.749 6.772-.257.089-.521.044-.816.041-.919-.09-1.658-.796-1.789-1.71-.131-.915.38-1.8 1.237-2.144 5.543-2.232 12.366-3.255 18.068-5.188a.7803.7803 0 0 0 .491-.498c2.796-8.471 8.688-20.327 15.951-22.84a.35.35 0 0 1 .36.1c.09.1.115.243.064.368-2.548 6.321-5.14 14.336-10.382 20.043-.2.21-.261.516-.158.787.104.271.354.457.643.48 1.383.067 2.587-.53 3.872-.829a.6248.6248 0 0 0 .452-.392c2.755-7.38 8.832-18.288 14.732-18.291.124.01.234.084.288.196.055.111.046.244-.023.347-3.674 5.636-5.627 12.935-9.912 16.721a.605.605 0 0 0-.196.664c.081.24.303.404.556.411.677-.019 1.307-.211 1.992-.191.236.011.458-.113.573-.32 4.246-7.633 8.761-15.025 14.381-15.872.135-.014.267.051.337.168a.352.352 0 0 1-.011.377c-3.398 5.094-6.397 11.565-9.969 14.476a.5814.5814 0 0 0-.237.482c.004.189.101.365.259.47.914.42 2.173.097 3.188.139.273.033.536-.116.647-.368 2.83-6.431 6.825-12.478 12.115-13.798a.3504.3504 0 0 1 .384.505c-2.263 4.333-5.391 9.801-8.53 12.862a.599.599 0 0 0-.172.625c.07.224.264.386.497.416.787.074 1.498-.139 2.302.023a.625.625 0 0 0 .66-.293c3.38-5.686 7.527-11.504 11.832-12.003a.3499.3499 0 0 1 .298.556c-2.909 4.053-5.241 8.614-8.236 11.221a.6033.6033 0 0 0-.208.63c.062.233.257.407.496.442.707.082 1.363-.028 2.096.174.266.07.547-.042.691-.276 3.374-5.469 6.459-10.295 10.649-11.07.14-.019.277.047.349.168.072.121.064.273-.019.387-2.617 3.588-5.158 7.459-7.88 10.631a.611.611 0 0 0-.119.598c.069.206.243.361.456.405.647.13 1.249.09 1.841.019a.6223.6223 0 0 0 .436-.262c3.369-4.808 5.981-9.243 10.314-10.487a.351.351 0 0 1 .372.135c.085.117.088.274.01.395-2.078 3.201-4.965 7.431-7.621 10.193a.6058.6058 0 0 0-.16.579c.052.208.21.373.416.434.64.198 1.221.173 1.798.132a.6227.6227 0 0 0 .433-.22c3.076-3.674 5.759-8.811 9.599-9.631.132-.021.264.036.34.145a.349.349 0 0 1 .02.369c-2.09 3.783-4.379 6.822-6.821 9.171a.5488.5488 0 0 0-.179.416c.003.158.073.307.194.409.453.176 1.122.076 1.647.202.232.062.48-.014.636-.197 2.776-3.32 5.778-8.553 9.192-8.928.126-.003.244.062.308.17a.349.349 0 0 1 .004.352c-1.921 3.384-4.083 5.87-6.281 8.179-.105.109-.145.265-.105.41.04.146.154.259.299.299 4.475.85 6.275-7.887 10.637-8.625.128-.008.25.053.319.161a.349.349 0 0 1 .011.357c-1.525 2.763-3.253 4.751-5.396 7.497a.4263.4263 0 0 0-.067.407c.049.138.166.241.309.272 3.72.374 5.195-7.63 8.87-7.442.117.019.216.095.264.202a.35.35 0 0 1-.023.332c-1.624 2.591-2.813 3.86-4.506 6.039a.4233.4233 0 0 0-.068.405c.05.138.167.24.31.27 2.702-.043 4.821-6.347 7.793-6.998a.3479.3479 0 0 1 .354.46c-.812 2.177-2.739 4.12-4.166 5.76a.4197.4197 0 0 0-.091.377c.033.133.129.241.257.29 2.668.475 4.518-6.317 7.473-6.528a.349.349 0 0 1 .28.197c.053.11.045.239-.021.341-1.12 1.726-2.302 3.216-3.507 4.563a.4167.4167 0 0 0-.081.445.418.418 0 0 0 .37.259c2.499-.364 3.928-4.723 6.216-5.874.132-.038.274.005.363.111.088.105.106.253.045.376-.71 1.147-2.034 2.414-2.9 3.902a.4223.4223 0 0 0 .008.425c.079.13.222.207.374.202 2.089-.522 3.239-4.55 5.363-4.948.129-.002.248.07.306.186.059.115.046.254-.032.357-.86 1.392-1.478 1.714-2.257 2.899a.4261.4261 0 0 0-.047.509c.099.161.292.238.475.189 1.515-.731 2.652-2.877 4.02-4.174.123-.09.291-.085.409.011.117.097.154.261.09.399-.462.622-1.196 1.176-1.654 1.942a.4142.4142 0 0 0 .353.612c1.239-.188 2.068-1.905 3.047-3.073a.3367.3367 0 0 1 .398-.023c.123.081.18.232.139.373-.089.151-.188.305-.299.457-.076.191-.011.41.157.528.169.118.767.047.886-.121 1.352-1.901 1.257-1.277.981-.525a.1577.1577 0 0 0 .046.171c.049.043.119.05.176.019.087-.047.18-.098.255-.174.279-.152.534-.344.757-.571.497-.493 1.323-.818 1.965-1.088a.2928.2928 0 0 1 .292.001c.09.053.145.149.145.253-.176.517-1.162.752-1.955 1.097-.371.168-.681.447-.889.798l-.197.334c.002.001.005.002.001.018.067.028.743.243.754.313.011.071.001.196-.07.189-1.632-.173-2.53.048-3.182.466a.4097.4097 0 0 0-.144.319c.002.123.059.238.154.315.645.31 1.649-.029 2.562.226.116.05.19.165.186.291a.3082.3082 0 0 1-.201.281Z" transform="translate(-21.35 -20)"/>
  <defs>
    <linearGradient id="_Linear1" x1="0" x2="1" y1="0" y2="0" gradientTransform="rotate(153.91 46.4826 31.3147) scale(76.4988)" gradientUnits="userSpaceOnUse">
      <stop offset="0" stop-color="#bc9e43"/>
      <stop offset=".5" stop-color="#bc9e43"/>
      <stop offset="1" stop-color="#8c7a43"/>
    </linearGradient>
  </defs>
</svg>