<?xml version="1.0" encoding="UTF-8" standalone="no"?>
<!DOCTYPE svg PUBLIC "-//W3C//DTD SVG 1.1//EN" "http://www.w3.org/Graphics/SVG/1.1/DTD/svg11.dtd">
<svg width="100%" height="100%" viewBox="0 0 458 79" version="1.1" xmlns="http://www.w3.org/2000/svg" xmlns:xlink="http://www.w3.org/1999/xlink" xml:space="preserve" xmlns:serif="http://www.serif.com/" style="fill-rule:evenodd;clip-rule:evenodd;stroke-linejoin:round;stroke-miterlimit:2;">
    <g transform="matrix(1,0,0,1,-21.35,-20)">
        <path d="M127.772,49.713L127.772,26.824C127.772,24.373 126.337,22.049 123.399,20.009C123.398,20.008 140.716,20.008 140.716,20.008C137.777,22.049 136.342,24.373 136.342,26.824L136.342,49.443C135.476,49.665 134.59,49.742 133.673,49.815C132.457,49.912 131.251,49.927 130.032,49.858C129.603,49.833 129.175,49.768 128.745,49.759C128.432,49.753 128.084,49.792 127.772,49.713ZM33.294,57.591L33.294,26.824C33.294,24.373 31.859,22.049 28.921,20.009C28.92,20.008 46.238,20.008 46.238,20.008C43.299,22.049 41.863,24.373 41.863,26.824L41.863,49.243C41.711,49.591 41.54,49.932 41.392,50.281C41.087,51.005 40.84,51.761 40.578,52.502C40.362,53.115 40.089,53.687 39.846,54.287C39.683,54.693 39.547,55.169 39.258,55.508C39.117,55.673 38.904,55.751 38.709,55.831C38.376,55.968 38.033,56.082 37.697,56.213C36.527,56.671 35.29,57.118 34.058,57.377C33.822,57.427 33.552,57.533 33.294,57.591ZM136.342,59.866L136.342,91.448C136.342,93.899 137.778,96.223 140.715,98.263L123.398,98.264C126.337,96.223 127.772,93.899 127.772,91.448L127.772,65.069C127.857,65.037 127.94,65.004 128.017,64.975C128.543,64.777 129.064,64.561 129.587,64.354C130.278,64.08 130.933,63.747 131.609,63.441C132.317,63.12 133.019,62.809 133.664,62.368C134.086,62.078 134.432,61.691 134.802,61.341C135.318,60.853 135.825,60.354 136.342,59.866ZM41.885,61.455C41.871,61.523 41.863,61.593 41.863,61.664L41.863,91.448C41.863,93.899 43.299,96.223 46.237,98.263C46.238,98.264 28.92,98.264 28.92,98.264C31.858,96.223 33.294,93.899 33.294,91.448L33.294,64.326C34.728,63.846 36.177,63.344 37.594,62.822C37.995,62.674 38.374,62.476 38.774,62.327C39.78,61.952 40.831,61.67 41.885,61.455ZM157.046,31.81L148.437,20L253.314,20L244.707,31.808C242.336,27.791 239.59,25.908 236.429,25.908L224.523,25.908C224.202,25.908 223.901,26.062 223.713,26.322C223.525,26.581 223.473,26.915 223.573,27.22L244.077,89.638C245.455,93.927 247.081,96.341 250.268,98.255C250.269,98.256 231.699,98.256 231.699,98.256C234.437,96.311 235.775,94.077 235.775,91.651C235.775,91.048 235.655,90.203 235.403,89.359L235.401,89.354L230.11,71.927C229.982,71.506 229.593,71.218 229.153,71.218L172.598,71.218C172.158,71.218 171.769,71.506 171.641,71.928L166.485,88.955C166.119,89.698 165.976,90.561 165.976,91.545C165.976,94.055 167.313,96.308 170.095,98.255C170.096,98.256 151.512,98.256 151.512,98.256C154.771,96.294 156.428,93.76 157.894,89.216L178.289,27.221C178.389,26.916 178.337,26.582 178.149,26.322C177.961,26.062 177.659,25.908 177.339,25.908L165.432,25.908C162.273,25.908 159.435,27.794 157.046,31.81ZM186.379,25.908C185.938,25.908 185.549,26.197 185.421,26.619L174.177,63.809C174.085,64.112 174.142,64.44 174.331,64.694C174.519,64.949 174.817,65.098 175.134,65.098L226.728,65.098C227.044,65.098 227.343,64.948 227.531,64.693C227.72,64.439 227.776,64.109 227.684,63.806L216.329,26.616C216.2,26.195 215.812,25.908 215.372,25.908L186.379,25.908ZM365.088,98.255L342.542,98.256C344.657,96.601 345.652,94.674 345.652,92.497C345.652,90.939 345.162,89.259 344.039,87.7C344.045,87.709 313.3,40.42 313.3,40.42C313.014,39.98 312.437,39.836 311.978,40.089L274.495,60.787C274.177,60.963 273.979,61.298 273.979,61.662L273.979,91.441C273.979,93.891 275.414,96.215 278.351,98.255C278.352,98.256 261.036,98.256 261.036,98.256C263.974,96.215 265.409,93.891 265.409,91.441L265.409,26.815C265.409,24.365 263.974,22.041 261.037,20.001C261.036,20 278.353,20 278.353,20C275.414,22.041 273.979,24.364 273.979,26.815L273.979,52.686C273.979,53.041 274.167,53.369 274.472,53.549C274.778,53.728 275.156,53.732 275.466,53.56L321.878,27.688C321.882,27.686 321.886,27.684 321.89,27.682C323.697,26.643 324.927,25.627 325.633,24.671C326.211,23.888 326.47,23.118 326.47,22.379C326.47,21.713 326.239,21.039 325.733,20.382C325.635,20.255 325.526,20.128 325.405,20.001C325.404,20 349.66,20 349.66,20C346.643,21.139 343.331,22.701 339.76,24.672L339.756,24.674L320.794,35.234C320.552,35.369 320.376,35.599 320.31,35.869C320.244,36.138 320.292,36.424 320.445,36.656L354.176,88.077C356.91,92.383 360.529,95.777 365.088,98.255ZM382.382,31.81L373.773,20L478.65,20L470.043,31.808C467.672,27.791 464.926,25.908 461.765,25.908L449.859,25.908C449.538,25.908 449.237,26.062 449.049,26.322C448.861,26.581 448.808,26.915 448.909,27.22L469.413,89.638C470.791,93.927 472.417,96.341 475.604,98.255C475.605,98.256 457.035,98.256 457.035,98.256C459.773,96.311 461.111,94.077 461.111,91.651C461.111,91.048 460.991,90.203 460.739,89.359L460.737,89.354L455.446,71.927C455.318,71.506 454.929,71.218 454.489,71.218L397.934,71.218C397.493,71.218 397.105,71.506 396.977,71.928L391.821,88.955C391.455,89.698 391.312,90.561 391.312,91.545C391.312,94.055 392.649,96.308 395.431,98.255C395.432,98.256 376.848,98.256 376.848,98.256C380.107,96.294 381.764,93.76 383.23,89.216L403.625,27.221C403.725,26.916 403.673,26.582 403.485,26.322C403.297,26.062 402.995,25.908 402.675,25.908L390.768,25.908C387.609,25.908 384.771,27.794 382.382,31.81ZM411.715,25.908C411.274,25.908 410.885,26.197 410.757,26.619L399.513,63.809C399.421,64.112 399.478,64.44 399.667,64.694C399.855,64.949 400.153,65.098 400.47,65.098L452.063,65.098C452.38,65.098 452.679,64.948 452.867,64.693C453.056,64.439 453.112,64.109 453.02,63.806L441.665,26.616C441.536,26.195 441.148,25.908 440.708,25.908L411.715,25.908Z" style="fill:white;"/>
    </g>
    <g id="Leaf" transform="matrix(1,0,0,1,-21.35,-20)">
        <path d="M139.343,55.212C137.615,55.571 135.398,54.107 133.794,54.933C133.68,55.007 133.608,55.131 133.6,55.266C133.592,55.402 133.649,55.533 133.753,55.62C134.675,56.221 136.127,55.992 137.406,56.669C137.509,56.73 137.568,56.844 137.557,56.963C137.547,57.083 137.468,57.185 137.356,57.227C135.34,57.681 132.664,55.676 130.658,56.181C130.51,56.247 130.409,56.388 130.395,56.55C130.381,56.712 130.456,56.868 130.59,56.959C131.572,57.556 133,58.298 134.084,59.103C134.18,59.178 134.222,59.303 134.192,59.421C134.163,59.539 134.066,59.628 133.947,59.649C131.824,59.457 128.887,56.228 127.004,56.955C126.893,57.026 126.818,57.141 126.8,57.272C126.782,57.402 126.823,57.533 126.911,57.631C128.09,58.89 129.738,60.024 131.151,61.227C131.243,61.307 131.28,61.433 131.245,61.549C131.21,61.666 131.11,61.751 130.989,61.767C128.229,61.694 125.592,57.187 123.158,57.932C122.977,58.006 122.867,58.191 122.889,58.386C123.276,60.374 126.61,61.342 127.611,63.423C127.649,63.52 127.636,63.63 127.577,63.716C127.517,63.801 127.419,63.852 127.315,63.85C123.554,63.53 121.987,56.748 118.668,58.592C118.552,58.663 118.474,58.784 118.458,58.92C118.442,59.056 118.489,59.192 118.586,59.289C120.347,61.068 121.478,63.017 122.897,64.892C122.971,64.988 122.982,65.118 122.926,65.226C122.869,65.333 122.755,65.397 122.634,65.39C118.522,64.801 117.909,57.491 114.198,59.26C114.073,59.324 113.985,59.443 113.962,59.582C113.938,59.72 113.981,59.862 114.077,59.964C116.059,62.075 117.637,64.295 118.835,66.618C118.887,66.72 118.879,66.841 118.814,66.936C118.75,67.03 118.639,67.081 118.525,67.069C114.075,66.371 114.014,58.9 109.868,59.475C109.72,59.504 109.597,59.605 109.54,59.744C109.482,59.883 109.499,60.042 109.584,60.166C111.306,62.697 112.749,65.302 114.096,67.935C114.153,68.046 114.138,68.179 114.06,68.275C113.981,68.372 113.853,68.412 113.733,68.378C108.516,66.685 109.069,59.08 104.411,59.488C104.247,59.508 104.109,59.617 104.051,59.771C103.992,59.925 104.024,60.099 104.133,60.222C106.668,63.093 107.391,65.907 108.606,68.894C108.652,69.005 108.63,69.133 108.55,69.222C108.47,69.311 108.345,69.347 108.23,69.313C102.882,67.536 104.198,59.654 99.123,59.061C98.894,59.045 98.675,59.157 98.552,59.351C98.43,59.546 98.424,59.791 98.537,59.991C100.313,63.162 101.775,66.416 103.038,69.725C103.084,69.844 103.053,69.979 102.96,70.066C102.868,70.153 102.732,70.176 102.615,70.124C98.305,68.061 97.214,62.62 95.206,59.023C95.153,58.929 95.076,58.85 94.983,58.795C94.368,58.414 93.858,58.424 93.337,58.363C93.112,58.338 92.89,58.437 92.759,58.621C92.627,58.806 92.606,59.048 92.703,59.252C94.355,62.694 95.897,66.165 96.235,69.958C96.245,70.092 96.172,70.217 96.051,70.273C95.93,70.33 95.786,70.305 95.691,70.211C94.205,68.763 92.917,67.538 91.897,65.602C90.214,62.404 91.18,57.991 87.392,57.126C87.16,57.066 86.914,57.146 86.76,57.329C86.606,57.513 86.57,57.769 86.669,57.987C88.346,61.767 89.812,66.201 90.165,69.83C90.176,69.957 90.109,70.078 89.997,70.137C89.884,70.196 89.748,70.182 89.649,70.101C85.122,66.4 85.06,61.502 83.613,56.975C83.54,56.752 83.349,56.588 83.117,56.551C82.274,56.411 81.422,56.239 80.615,56.232C80.388,56.245 80.185,56.381 80.088,56.588C79.992,56.794 80.016,57.037 80.152,57.22C83.092,61.286 83.619,65.999 85.661,70.308C85.719,70.428 85.696,70.572 85.601,70.667C85.507,70.762 85.363,70.788 85.242,70.73C79.625,67.926 78.53,61.423 77.102,56.506C77.031,56.265 76.822,56.09 76.572,56.063C75.681,55.932 74.732,55.584 73.895,55.662C73.735,55.691 73.593,55.783 73.502,55.919C73.412,56.054 73.38,56.221 73.415,56.38C73.741,57.699 75.006,58.332 75.638,59.466C76.285,60.623 76.325,62.025 76.797,63.09C78.03,65.875 79.372,68.484 80.547,71.742C80.592,71.866 80.555,72.005 80.455,72.091C80.354,72.176 80.211,72.19 80.095,72.127C73.296,68.372 71.918,61.865 69.781,56.339C69.7,56.132 69.515,55.983 69.295,55.949C68.149,55.778 67.065,55.841 66.003,55.989C65.774,56.02 65.581,56.176 65.502,56.393C65.424,56.611 65.472,56.854 65.629,57.025C70.197,62.063 71.905,67.867 74.234,73.505C74.283,73.623 74.257,73.759 74.167,73.85C74.076,73.941 73.941,73.969 73.822,73.921C68.056,71.514 65.914,65.85 63.819,61.508C62.511,58.798 61.433,54.743 57.347,56.46C57.14,56.54 56.992,56.725 56.959,56.944C56.926,57.163 57.013,57.383 57.187,57.52C63.719,62.687 64.082,69.506 68.103,75.347C68.181,75.459 68.179,75.609 68.096,75.719C68.014,75.829 67.87,75.873 67.74,75.828C58.958,72.701 55.96,64.151 53.567,57.391C53.479,57.143 53.245,56.978 52.981,56.977C51.533,56.991 50.19,57.4 48.847,57.81C48.568,57.888 48.355,58.115 48.296,58.399C48.236,58.683 48.339,58.977 48.563,59.161C54.954,64.516 58.013,71.844 61.367,78.228C61.428,78.343 61.413,78.484 61.328,78.583C61.243,78.683 61.106,78.72 60.983,78.677C51.246,75.268 47.203,66.4 43.612,59.673C43.441,59.355 43.074,59.195 42.724,59.287C35.888,61.128 27.235,64.923 23.975,66.059C23.718,66.148 23.454,66.103 23.159,66.1C22.24,66.01 21.501,65.304 21.37,64.39C21.239,63.475 21.75,62.59 22.607,62.246C28.15,60.014 34.973,58.991 40.675,57.058C40.908,56.979 41.09,56.794 41.166,56.56C43.962,48.089 49.854,36.233 57.117,33.72C57.246,33.681 57.386,33.72 57.477,33.82C57.567,33.92 57.592,34.063 57.541,34.188C54.993,40.509 52.401,48.524 47.159,54.231C46.959,54.441 46.898,54.747 47.001,55.018C47.105,55.289 47.355,55.475 47.644,55.498C49.027,55.565 50.231,54.968 51.516,54.669C51.724,54.623 51.894,54.476 51.968,54.277C54.723,46.897 60.8,35.989 66.7,35.986C66.824,35.996 66.934,36.07 66.988,36.182C67.043,36.293 67.034,36.426 66.965,36.529C63.291,42.165 61.338,49.464 57.053,53.25C56.855,53.408 56.777,53.673 56.857,53.914C56.938,54.154 57.16,54.318 57.413,54.325C58.09,54.306 58.72,54.114 59.405,54.134C59.641,54.145 59.863,54.021 59.978,53.814C64.224,46.181 68.739,38.789 74.359,37.942C74.494,37.928 74.626,37.993 74.696,38.11C74.766,38.227 74.761,38.374 74.685,38.487C71.287,43.581 68.288,50.052 64.716,52.963C64.563,53.075 64.475,53.255 64.479,53.445C64.483,53.634 64.58,53.81 64.738,53.915C65.652,54.335 66.911,54.012 67.926,54.054C68.199,54.087 68.462,53.938 68.573,53.686C71.403,47.255 75.398,41.208 80.688,39.888C80.821,39.86 80.958,39.91 81.04,40.018C81.123,40.127 81.135,40.273 81.072,40.393C78.809,44.726 75.681,50.194 72.542,53.255C72.367,53.412 72.3,53.656 72.37,53.88C72.44,54.104 72.634,54.266 72.867,54.296C73.654,54.37 74.365,54.157 75.169,54.319C75.429,54.371 75.693,54.254 75.829,54.026C79.209,48.34 83.356,42.522 87.661,42.023C87.795,42.017 87.921,42.088 87.985,42.207C88.049,42.325 88.039,42.47 87.959,42.579C85.05,46.632 82.718,51.193 79.723,53.8C79.534,53.95 79.452,54.198 79.515,54.43C79.577,54.663 79.772,54.837 80.011,54.872C80.718,54.954 81.374,54.844 82.107,55.046C82.373,55.116 82.654,55.004 82.798,54.77C86.172,49.301 89.257,44.475 93.447,43.7C93.587,43.681 93.724,43.747 93.796,43.868C93.868,43.989 93.86,44.141 93.777,44.255C91.16,47.843 88.619,51.714 85.897,54.886C85.754,55.05 85.708,55.277 85.778,55.484C85.847,55.69 86.021,55.845 86.234,55.889C86.881,56.019 87.483,55.979 88.075,55.908C88.251,55.887 88.41,55.791 88.511,55.646C91.88,50.838 94.492,46.403 98.825,45.159C98.965,45.123 99.113,45.177 99.197,45.294C99.282,45.411 99.285,45.568 99.207,45.689C97.129,48.89 94.242,53.12 91.586,55.882C91.434,56.033 91.373,56.254 91.426,56.461C91.478,56.669 91.636,56.834 91.842,56.895C92.482,57.093 93.063,57.068 93.64,57.027C93.808,57.015 93.965,56.936 94.073,56.807C97.149,53.133 99.832,47.996 103.672,47.176C103.804,47.155 103.936,47.212 104.012,47.321C104.089,47.43 104.096,47.574 104.032,47.69C101.942,51.473 99.653,54.512 97.211,56.861C97.094,56.968 97.029,57.119 97.032,57.277C97.035,57.435 97.105,57.584 97.226,57.686C97.679,57.862 98.348,57.762 98.873,57.888C99.105,57.95 99.353,57.874 99.509,57.691C102.285,54.371 105.287,49.138 108.701,48.763C108.827,48.76 108.945,48.825 109.009,48.933C109.074,49.041 109.075,49.176 109.013,49.285C107.092,52.669 104.93,55.155 102.732,57.464C102.627,57.573 102.587,57.729 102.627,57.874C102.667,58.02 102.781,58.133 102.926,58.173C107.401,59.023 109.201,50.286 113.563,49.548C113.691,49.54 113.813,49.601 113.882,49.709C113.951,49.817 113.955,49.954 113.893,50.066C112.368,52.829 110.64,54.817 108.497,57.563C108.406,57.678 108.381,57.832 108.43,57.97C108.479,58.108 108.596,58.211 108.739,58.242C112.459,58.616 113.934,50.612 117.609,50.8C117.726,50.819 117.825,50.895 117.873,51.002C117.922,51.109 117.913,51.234 117.85,51.334C116.226,53.925 115.037,55.194 113.344,57.373C113.253,57.488 113.227,57.641 113.276,57.778C113.326,57.916 113.443,58.018 113.586,58.048C116.288,58.005 118.407,51.701 121.379,51.05C121.495,51.041 121.609,51.092 121.68,51.185C121.751,51.277 121.771,51.4 121.733,51.51C120.921,53.687 118.994,55.63 117.567,57.27C117.477,57.373 117.443,57.514 117.476,57.647C117.509,57.78 117.605,57.888 117.733,57.937C120.401,58.412 122.251,51.62 125.206,51.409C125.328,51.422 125.434,51.496 125.486,51.606C125.539,51.716 125.531,51.845 125.465,51.947C124.345,53.673 123.163,55.163 121.958,56.51C121.846,56.63 121.814,56.803 121.877,56.955C121.939,57.106 122.084,57.208 122.247,57.214C124.746,56.85 126.175,52.491 128.463,51.34C128.595,51.302 128.737,51.345 128.826,51.451C128.914,51.556 128.932,51.704 128.871,51.827C128.161,52.974 126.837,54.241 125.971,55.729C125.897,55.862 125.9,56.024 125.979,56.154C126.058,56.284 126.201,56.361 126.353,56.356C128.442,55.834 129.592,51.806 131.716,51.408C131.845,51.406 131.964,51.478 132.022,51.594C132.081,51.709 132.068,51.848 131.99,51.951C131.13,53.343 130.512,53.665 129.733,54.85C129.606,54.99 129.587,55.197 129.686,55.359C129.785,55.52 129.978,55.597 130.161,55.548C131.676,54.817 132.813,52.671 134.181,51.374C134.304,51.284 134.472,51.289 134.59,51.385C134.707,51.482 134.744,51.646 134.68,51.784C134.218,52.406 133.484,52.96 133.026,53.726C132.957,53.853 132.959,54.006 133.031,54.131C133.103,54.256 133.235,54.334 133.379,54.338C134.618,54.15 135.447,52.433 136.426,51.265C136.54,51.171 136.701,51.162 136.824,51.242C136.947,51.323 137.004,51.474 136.963,51.615C136.874,51.766 136.775,51.92 136.664,52.072C136.588,52.263 136.653,52.482 136.821,52.6C136.99,52.718 137.588,52.647 137.707,52.479C139.059,50.578 138.964,51.202 138.688,51.954C138.667,52.015 138.685,52.083 138.734,52.125C138.783,52.168 138.853,52.175 138.91,52.144C138.997,52.097 139.09,52.046 139.165,51.97C139.444,51.818 139.699,51.626 139.922,51.399C140.419,50.906 141.245,50.581 141.887,50.311C141.978,50.259 142.089,50.26 142.179,50.312C142.269,50.365 142.324,50.461 142.324,50.565C142.148,51.082 141.162,51.317 140.369,51.662C139.998,51.83 139.688,52.109 139.48,52.46L139.283,52.794C139.285,52.795 139.288,52.796 139.284,52.812C139.351,52.84 140.027,53.055 140.038,53.125C140.049,53.196 140.039,53.321 139.968,53.314C138.336,53.141 137.438,53.362 136.786,53.78C136.693,53.859 136.64,53.976 136.642,54.099C136.644,54.222 136.701,54.337 136.796,54.414C137.441,54.724 138.445,54.385 139.358,54.64C139.474,54.69 139.548,54.805 139.544,54.931C139.541,55.057 139.461,55.168 139.343,55.212Z" style="fill:url(#_Linear1);"/>
    </g>
    <defs>
        <linearGradient id="_Linear1" x1="0" y1="0" x2="1" y2="0" gradientUnits="userSpaceOnUse" gradientTransform="matrix(-68.7061,33.6384,-33.6384,-68.7061,102,39)"><stop offset="0" style="stop-color:rgb(188,158,67);stop-opacity:1"/><stop offset="0.5" style="stop-color:rgb(188,158,67);stop-opacity:1"/><stop offset="1" style="stop-color:rgb(140,122,67);stop-opacity:1"/></linearGradient>
    </defs>
</svg>
